<?xml version="1.0" encoding="utf-8"?>
<!-- Generator: Adobe Illustrator 19.2.1, SVG Export Plug-In . SVG Version: 6.00 Build 0)  -->
<svg version="1.1" id="Layer_2" xmlns="http://www.w3.org/2000/svg" xmlns:xlink="http://www.w3.org/1999/xlink" x="0px" y="0px"
	  style="enable-background:new 0 0 90 56.4;" xml:space="preserve">
<g>
	<polygon points="38,1.3 0,56.4 12,56.4 38,18.7 38,56.4 48.4,56.4 48.4,0 38.9,0 	"/>
	<path  d="M90,18c0-9.3-6.8-17-15.3-17.5c-1.1-0.2-2.2-0.4-3.3-0.4H52v9.6h17.6v0c0.1,0,0.2,0,0.3,0c5.1,0,9.2,3.9,9.2,8.7
		c0,4.8-4.1,8.8-9.2,8.8c-0.1,0-0.2,0-0.3,0v0h-12l20.1,29.2h12L75.3,35.5C83.5,34.6,90,27.1,90,18z"/>
</g>
</svg>
